<?xml version="1.0" encoding="utf-8"?>
<!-- Generator: Adobe Illustrator 18.0.0, SVG Export Plug-In . SVG Version: 6.00 Build 0)  -->
<!DOCTYPE svg PUBLIC "-//W3C//DTD SVG 1.1//EN" "http://www.w3.org/Graphics/SVG/1.1/DTD/svg11.dtd">
<svg version="1.1" xmlns="http://www.w3.org/2000/svg" xmlns:xlink="http://www.w3.org/1999/xlink" x="0px" y="0px"
	 viewBox="0 0 200 200" enable-background="new 0 0 200 200" xml:space="preserve">
<g id="happy-bg">
	<g>
		<path fill="#A8A8A8" d="M62.3,85.2L65,74.1h-3.1l2.4-3.6c0.5,0.2,1,0.4,1.6,0.5c0.6-1.7,1.5-3.1,2.8-4.3c1.6-1.5,3.7-2.5,6-2.7
			c0.3,0,0.7-0.1,1-0.1V52.4c0-1.9-1.6-3.5-3.5-3.5c-1.9,0-3.5,1.6-3.5,3.5v4.2c-0.4-0.1-0.9-0.1-1.3-0.1c-0.4,0-0.9,0-1.3,0.1v-10
			c0-1.9-1.6-3.5-3.5-3.5c-1.9,0-3.5,1.6-3.5,3.5v19.1l-1.7,2.6l-1.7-2.6V46.6c0-1.9-1.6-3.5-3.5-3.5c-1.9,0-3.5,1.6-3.5,3.5v10
			c-0.4-0.1-0.9-0.1-1.3-0.1c-0.9,0-1.8,0.2-2.6,0.5V40.6c0-1.9-1.6-3.5-3.5-3.5c-1.9,0-3.5,1.6-3.5,3.5v19.1L35.4,63V46.6
			c0-1.9-1.6-3.5-3.5-3.5c-1.9,0-3.5,1.6-3.5,3.5V51c-0.8-0.3-1.7-0.5-2.6-0.5c-4,0-7.3,3.3-7.3,7.3s3.3,7.3,7.3,7.3
			c0.9,0,1.8-0.2,2.6-0.5v2.1c0,0.4,0.1,0.8,0.2,1.2h-2.8h-6.3L14,59.8V40.6c0-1.9-1.6-3.5-3.5-3.5c-1.9,0-3.5,1.6-3.5,3.5v20.2
			c0,0.7,0.2,1.4,0.6,1.9l9.5,14.4v15.4c0,0.2-0.1,0.5-0.1,0.7v29.3c0,1.9,1.6,3.5,3.5,3.5c1.9,0,3.5-1.6,3.5-3.5V98.4h1.8h1.8v24.1
			c0,1.9,1.6,3.5,3.5,3.5s3.5-1.6,3.5-3.5V93.2c0-0.2,0-0.5-0.1-0.7V77.2l3.9,5.9v15.4c0,0.2-0.1,0.5-0.1,0.7v29.3
			c0,1.9,1.6,3.5,3.5,3.5c1.9,0,3.5-1.6,3.5-3.5v-24.1h1.8h1.8v24.1c0,1.9,1.6,3.5,3.5,3.5c1.9,0,3.5-1.6,3.5-3.5V99.2
			c0-0.2,0-0.5-0.1-0.7V83.2l1.3-2l1.3,2v15.4c0,0.2-0.1,0.5-0.1,0.7v29.3c0,1.9,1.6,3.5,3.5,3.5c1.9,0,3.5-1.6,3.5-3.5v-24.1h1.8
			H69v24.1c0,1.9,1.6,3.5,3.5,3.5c1.9,0,3.5-1.6,3.5-3.5v-21.9L64.9,94.9C62.4,92.3,61.5,88.7,62.3,85.2z M47.1,74.1h-6.3l-2.2-3.3
			l2.1-3.2c1.3,2.2,3.6,3.6,6.3,3.6c1.1,0,2.1-0.2,3-0.7l2.4,3.6H47.1z"/>
		<path fill="#A8A8A8" d="M88.3,51.5c-0.9,0-1.7,0.3-2.3,0.8v-5.7c0-1.9-1.6-3.5-3.5-3.5S79,44.7,79,46.6v17.9
			c0.8,0.3,1.6,0.6,2.3,1.1c0.9,0.6,1.7,1.3,2.4,2.1c0.4-0.6,0.8-1.1,1.2-1.7c0.4-0.5,0.8-1,1.3-1.4c0.8-0.8,1.6-1.5,2.6-2.1
			c1-0.7,2.1-1.3,3.2-1.7v-5.6C91.8,53.1,90.2,51.5,88.3,51.5z"/>
		<polygon fill="#A8A8A8" points="78.5,130.3 81.3,126.9 81.3,112.2 78.5,109.3 		"/>
		<path fill="#A8A8A8" d="M180.4,39.8c-1.9,0-3.5,1.6-3.5,3.5v19.1l-5.5,8.3h-6.3h-2.8c0.2-0.4,0.2-0.8,0.2-1.2v-2.1
			c0.8,0.3,1.7,0.5,2.6,0.5c4,0,7.3-3.3,7.3-7.3s-3.3-7.3-7.3-7.3c-0.9,0-1.8,0.2-2.6,0.5v-4.4c0-1.9-1.6-3.5-3.5-3.5
			c-1.9,0-3.5,1.6-3.5,3.5v16.4l-2.2-3.3V43.3c0-1.9-1.6-3.5-3.5-3.5c-1.9,0-3.5,1.6-3.5,3.5v16.4c-0.8-0.3-1.7-0.5-2.6-0.5
			c-0.4,0-0.9,0-1.3,0.1v-10c0-1.9-1.6-3.5-3.5-3.5c-1.9,0-3.5,1.6-3.5,3.5v19.1l-1.7,2.6l-0.3-0.4v0.8v12v0.8l0.3-0.4l1.3,2v15.4
			c0,0.2-0.1,0.5-0.1,0.7v29.3c0,1.9,1.6,3.5,3.5,3.5c1.9,0,3.5-1.6,3.5-3.5v-24.1h1.8h1.8v24.1c0,1.9,1.6,3.5,3.5,3.5
			c1.9,0,3.5-1.6,3.5-3.5v-29.3c0-0.2,0-0.5-0.1-0.7V85.8l3.9-5.9v15.3c0,0.2-0.1,0.5-0.1,0.7v29.3c0,1.9,1.6,3.5,3.5,3.5
			c1.9,0,3.5-1.6,3.5-3.5v-24.1h1.8h1.8v24.1c0,1.9,1.6,3.5,3.5,3.5s3.5-1.6,3.5-3.5V95.9c0-0.2,0-0.5-0.1-0.7V79.8l9.5-14.4
			c0.4-0.6,0.6-1.2,0.6-1.9V43.3C183.9,41.3,182.3,39.8,180.4,39.8z M150,76.7h-6.3h-5.4l2.4-3.6c0.9,0.4,1.9,0.7,3,0.7
			c2.7,0,5-1.5,6.3-3.6l2.1,3.2L150,76.7z"/>
		<path fill="#A8A8A8" d="M132.4,89c-0.2,0.4-0.4,0.8-0.7,1.2l-13.8,21V133c0.1,0.5,0.1,1,0.1,1.5v0.2c0.1,0,0.3,0,0.4,0
			c1.9,0,3.5-1.6,3.5-3.5v-24.1h1.8h1.8v24.1c0,1.9,1.6,3.5,3.5,3.5s3.5-1.6,3.5-3.5v-29.3c0-0.2,0-0.5-0.1-0.7V89z"/>
		<path fill="#A8A8A8" d="M108.4,45.8c-1.9,0-3.5,1.6-3.5,3.5v0.5c-0.6-0.5-1.4-0.8-2.3-0.8c-1.9,0-3.5,1.6-3.5,3.5v7
			c2,0.1,4,0.5,5.8,1.2c0.4,0.2,0.8,0.4,1.3,0.6c2.2,1.1,4.2,2.6,5.8,4.5V49.3h0C111.9,47.3,110.3,45.8,108.4,45.8z"/>
	</g>
	<path fill="#A8A8A8" d="M35.9,33.8c2.1-2.8,2.2-6.6,0.5-9.7c-1.9-3.3-10.1-9.5-5.6-13.2c2.5-2-1-5.5-3.5-3.5c-3,2.4-3.2,6-2.2,9.4
		c1.4,4.6,10.4,9.4,6.5,14.4C29.7,33.9,34,36.4,35.9,33.8z"/>
	<path fill="#A8A8A8" d="M166.3,12.5c3.2-0.3,2.1-5.2-1-4.9c-3.8,0.4-6,3.3-7,6.7c-1.3,4.6,3.6,13.5-2.4,15.6
		c-3,1.1-0.7,5.5,2.3,4.5c3.3-1.2,5.4-4.4,5.6-7.9C164,22.8,160.5,13.1,166.3,12.5z"/>
	<path fill="#A8A8A8" d="M68.4,33.3c0.5,3.5,3,6.4,6.4,7.3c3.1,0.8,4.9-3.9,1.8-4.7c-6.2-1.5-2.1-10.9-3.9-15.3
		c-1.3-3.3-3.8-6-7.6-6c-3.2,0-3.8,5-0.6,5C70.3,19.6,67.8,29.6,68.4,33.3z"/>
	<path fill="#A8A8A8" d="M129.5,15.4c1.5-3.3,1.7-6.9-0.9-9.6c-2.2-2.3-6.2,0.7-4,3c4,4.2-4.9,9.3-7.2,12.3
		c-2.1,2.8-2.5,6.6-0.8,9.6c1.6,2.8,6.2,0.9,4.6-1.9C118,23.3,127.5,19.7,129.5,15.4z"/>
	<path fill="#A8A8A8" d="M84.3,20.6c1.3,3.2,4.5,5.5,7.9,5.5c3.2,0,3.9-4.9,0.6-5c-6.3,0-4.6-10.1-7.4-14c-2.1-2.9-5.1-4.9-8.8-4
		c-3.1,0.8-2.5,5.7,0.6,5C82.9,6.8,82.9,17.1,84.3,20.6z"/>
</g>
<g id="dot-5">
	<path fill="#A8A8A8" d="M181.5,23.3c-4.5,0-4.5,7,0,7S186,23.3,181.5,23.3z"/>
</g>
<g id="dot-4">
	<path fill="#A8A8A8" d="M109.5,8.3c-4.5,0-4.5,7,0,7S114,8.3,109.5,8.3z"/>
</g>
<g id="dot-3">
	<path fill="#A8A8A8" d="M103,33.3c4.5,0,4.5-7,0-7S98.5,33.3,103,33.3z"/>
</g>
<g id="dot-1">
	<path fill="#A8A8A8" d="M15.5,24.3c4.5,0,4.5-7,0-7S11,24.3,15.5,24.3z"/>
	<path fill="#A8A8A8" d="M49,34.3c4.5,0,4.5-7,0-7S44.5,34.3,49,34.3z"/>
</g>
<g id="dot-2">
	<path fill="#A8A8A8" d="M141.5,22.8c4.5,0,4.5-7,0-7S137,22.8,141.5,22.8z"/>
</g>
<g id="happy-guy">
	<g>
		<path fill="#F5821F" d="M114.9,106.7l12.7-19.2c0.6-0.9,0.9-1.9,0.9-3v-7.8v-0.9V72V61V46.2c0-0.1,0-0.3,0-0.4
			c-0.2-2.8-2.5-5-5.4-5c-3,0-5.4,2.4-5.4,5.4v5.6v10.7v8.1v6.2v6.2l-2.6,4l-5.8,8.8H96h-1.2h-7.4l-9.1-9.6l1.8-7.5l0.7-2.9
			c0,0,0,0,0,0c0-0.1,0.1-0.3,0.1-0.4c0-0.1,0-0.1,0-0.2c0.1-0.6,0-1.2-0.1-1.8c-0.1-0.6-0.3-1.1-0.6-1.6c-0.7-1.2-1.9-2.1-3.4-2.5
			c0,0-0.1,0-0.1,0c-0.4-0.1-0.8-0.1-1.2-0.1c0,0,0,0-0.1,0c-2.4,0-4.6,1.7-5.2,4.2l-0.2,1l-0.4,1.5l-2.6,10.9
			c-0.4,1.8,0.1,3.7,1.3,5l7.5,7.9l2.6,2.7l7.7,8.1v0v18.5l-0.7,0.9l-6,7.3l-11.4,13.9c-1.8,2.2-1.6,5.5,0.5,7.4L82.6,171
			c1,1,2.4,1.4,3.7,1.4c1.5,0,2.9-0.6,4-1.7c2-2.2,1.9-5.6-0.3-7.7l-10.1-9.3l9.2-11.2h13.1v37.3c0,3,2.4,5.4,5.4,5.4
			s5.4-2.4,5.4-5.4v-45.2c0-0.4,0-0.7-0.1-1.1v-23.7L114.9,106.7z"/>
		<path fill="#F5821F" d="M86.3,79.8c0.8,3.5,3.1,6.4,6.2,8.1c1.1,0.6,2.3,1.1,3.6,1.3c0.8,0.2,1.6,0.2,2.4,0.2
			c4.9,0,9.2-2.8,11.2-7c0.5-1,0.8-2,1.1-3.1c0.2-0.8,0.2-1.6,0.2-2.5c0-1-0.1-1.9-0.3-2.8c-0.7-2.8-2.3-5.3-4.5-7
			c-0.4-0.3-0.8-0.6-1.3-0.9c-0.8-0.5-1.6-0.8-2.4-1.1c-1.1-0.4-2.2-0.6-3.4-0.6c-0.2,0-0.4,0-0.6,0c-1.8,0-3.5,0.4-5.1,1.1
			c-0.5,0.2-1,0.5-1.5,0.8c-3.2,2-5.4,5.3-5.8,9.3c0,0.1,0,0.1,0,0.2c0,0.3,0,0.7-0.1,1c0,0,0,0.1,0,0.1c0,0.4,0,0.8,0.1,1.2
			C86,78.7,86.1,79.3,86.3,79.8z"/>
	</g>
</g>
</svg>
