<?xml version="1.0" encoding="utf-8"?>
<!-- Generator: Adobe Illustrator 18.0.0, SVG Export Plug-In . SVG Version: 6.00 Build 0)  -->
<!DOCTYPE svg PUBLIC "-//W3C//DTD SVG 1.1//EN" "http://www.w3.org/Graphics/SVG/1.1/DTD/svg11.dtd">
<svg version="1.1" id="Layer_1" xmlns="http://www.w3.org/2000/svg" xmlns:xlink="http://www.w3.org/1999/xlink" x="0px" y="0px"
	 viewBox="0 0 504 360" enable-background="new 0 0 504 360" xml:space="preserve">
<path fill="#F8AC1C" d="M433.2,153.4c-23.5-4.3-42.1-8.1-56.5-12s-28.2-7.7-34.5-24.4l-0.5-1v-1c-1-9.1,2.4-14.8,5.3-18.2
	c4.3-4.8,11-7.7,18.2-7.7c8.6,0,18.7,3.8,21.5,12c1,1.9,1.9,5.7,0,10.1c2.4,1,6.2,1.9,10.1,1.9c5.3,0,10.5-1.4,15.8-4.3
	c3.8-1.4,9.1-4.8,8.6-8.6c-0.5-4.3-7.2-11-18.2-14.8c-11.5-2.9-23-4.8-34-4.8c-29.7,0-49.8,11-54.6,22.5c-2.4,5.3-6.2,14.4,4.3,25.4
	c6.7,5.7,11,10.1,25.4,15.8c3.8,1.4,7.7,2.9,12,4.8c6.7,2.9,14.4,5.7,21.5,9.1c7.2,3.4,30.6,13.4,36.9,17.2
	c25.4,14.8,38.8,37.8,33.5,57.4c-2.9,14.8-34,48.8-99.1,14.4c16.8-16.3,23.9-34.9,19.6-53.1s-20.6-36.9-48.3-29.2
	c37.8-4.3,32.5,38.8,4.3,66.1c-34.9-21.1-56-49.8-62.2-66.1c16.8-13.9,24.9-26.3,29.2-34.9c27.3-46.4,0-54.1-10.1-53.6
	c-15.3,1-45,16.8-23.9,74.2c-2.4-6.2-5.3-38.8,10.1-54.6c13.4-13.4,43.1-0.5,14.8,38.8c-28.2,42.1-95.7,37.3-91.9,97.6
	c0.5,1.4,0.5,2.9,1,4.3c-11,12.9-27.8,28.2-45.5,27.3c-4.8-1-9.1-2.4-11-6.2c-2.4-5.3-8.1-12.9,12-39.2
	c9.6-14.8,23.5-35.4,37.8-56.5l18.2-27.3c1-1.9,2.4-3.8,3.4-5.7c23.5-5.7,38.8-14.4,45.5-25.4c-1.9,0.5-4.3,0.5-6.7,1
	c-6.2,1-14.4,1.9-24.4,2.9c-2.9,0.5-5.7,0.5-8.6,1c0.5-7.2-0.5-13.9-3.4-19.1c-3.4-5.7-8.1-9.1-14.8-9.1c-5.7,0-14.8,2.4-28.2,11.5
	c4.3,4.8,4.8,12.4,2.9,23.9c-17.2,3.4-36.4,7.2-58.4,12c0.5-1.9,1-3.8,1.4-6.2c3.4-12.4,1.4-23.9-4.8-32.1
	c-4.3-5.7-10.5-8.6-17.2-8.6c-9.6,0-19.6,6.2-28.2,17.7c1.4,1.4,2.9,2.9,3.8,4.8c5.3,7.7,7.2,18.7,7.2,33.5
	c-22,5.3-46.4,11-72.8,17.7c20.6-2.4,44.5-5.3,71.8-8.1c-1,7.7-1.9,15.3-3.8,24.4c-3.8,16.8-10.5,30.2-17.2,42.6
	c-7.7,15.3-14.8,28.7-14.8,45c0,9.1,9.1,23.9,27.3,23.9c11.5,0,23.5-2.9,37.8-12.9l5.7-3.8l3.8,5.7c26.3,26.3,62.2,1.9,86.2-20.6
	c10.1,19.6,32.5,31.6,66.5,31.1c18.7,0,38.3-4.3,54.1-12c6.2-3.4,12-6.7,17.2-10.1c96.7,57.4,167,1.4,167-39.7
	C504.5,193.6,487.2,163.5,433.2,153.4z M79.9,269.7c-7.2,0-13.9-3.8-17.2-10.1c-6.2-11.5-3.4-29.7,8.1-47.9
	c18.2-29.2,27.3-44,35.4-69.9c18.2-1.9,37.3-4.3,57.9-6.2c-5.3,18.7-13.9,41.6-38.3,91.4C112,253.9,95.7,269.7,79.9,269.7z
	 M265.6,252.5c-15.8-2.9-29.2-12.9-34.5-26.8c-6.2-16.8-0.5-37.3,19.1-51.7c2.9-1.9,5.3-3.8,8.1-6.2c16.3,38.3,37.8,60.8,53.6,73.2
	C298.7,250.1,282.9,254.9,265.6,252.5z"/>
</svg>
